<?xml version="1.0" encoding="UTF-8" standalone="no"?>
<svg
   enable-background="new 0 0 210 630"
   viewBox="0 0 210 630"
   version="1.1"
   id="svg55"
   sodipodi:docname="bt-bonus.svg"
   inkscape:version="1.3.2 (091e20e, 2023-11-25, custom)"
   xmlns:inkscape="http://www.inkscape.org/namespaces/inkscape"
   xmlns:sodipodi="http://sodipodi.sourceforge.net/DTD/sodipodi-0.dtd"
   xmlns="http://www.w3.org/2000/svg"
   xmlns:svg="http://www.w3.org/2000/svg">
  <defs
     id="defs55" />
  <sodipodi:namedview
     id="namedview55"
     pagecolor="#ffffff"
     bordercolor="#000000"
     borderopacity="0.25"
     inkscape:showpageshadow="2"
     inkscape:pageopacity="0.0"
     inkscape:pagecheckerboard="0"
     inkscape:deskcolor="#d1d1d1"
     inkscape:zoom="2.4647722"
     inkscape:cx="34.891663"
     inkscape:cy="122.72939"
     inkscape:window-width="1366"
     inkscape:window-height="745"
     inkscape:window-x="-8"
     inkscape:window-y="-8"
     inkscape:window-maximized="1"
     inkscape:current-layer="svg55"
     showguides="true">
    <sodipodi:guide
       position="-77.897665,526.54216"
       orientation="1,0"
       id="guide1"
       inkscape:locked="false" />
  </sodipodi:namedview>
  <g
     fill="#fff"
     id="g55">
    <circle
       cx="19.8"
       cy="460.7"
       r="2.2"
       id="circle1" />
    <circle
       cx="26"
       cy="433.9"
       r="2.2"
       id="circle2" />
    <path
       d="m51.6 455.8c-.6-.6-1.2-1.1-1.9-1.5l-24.1-15.3 6.5 12.3-17.9-12 19.5 30.7c.5.7 1 1.4 1.6 2.1 4.5 4.5 11.7 4.5 16.2 0 4.6-4.5 4.6-11.8.1-16.3zm-3.1 13.1c-2.8 2.8-7.2 2.8-10 0s-2.8-7.2 0-10 7.2-2.8 10 0c2.7 2.8 2.7 7.3 0 10z"
       id="path2" />
    <path
       d="m 51.187117,107.05546 c -2.153226,-2.15323 -1.674731,-5.02419 -1.196237,-6.45968 0.119624,-0.35887 -0.239247,-0.717737 -0.598118,-0.598117 -1.435485,0.358867 -4.306453,0.837367 -5.861561,-1.196234 -1.913979,-2.631721 -0.717741,-5.024195 0.239248,-6.220432 0.239247,-0.358871 0,-0.717742 -0.358871,-0.837365 -1.196238,-0.239248 -3.469087,-0.837367 -4.665324,-2.272851 -1.555108,-2.033602 -0.95699,-4.186829 -0.358871,-5.741937 -2.392474,-0.35887 -4.904571,-0.35887 -7.416669,0.119624 -9.928765,1.794355 -17.704304,10.287637 -18.54167,20.336022 -1.076613,13.39785 9.450271,24.64247 22.608876,24.64247 11.962368,0 21.77151,-9.21101 22.608876,-20.93414 -1.555109,0.35887 -4.665324,0.83737 -6.459679,-0.83736 z m -16.149197,6.81855 c -4.306452,0 -7.77554,-3.46908 -7.77554,-7.77554 0,-4.30645 3.469088,-7.775539 7.77554,-7.775539 4.306452,0 7.77554,3.469089 7.77554,7.775539 0,4.30646 -3.469088,7.77554 -7.77554,7.77554 z"
       id="path3"
       style="stroke-width:1.19624" />
    <path
       d="m 48.076901,78.4318 c -1.435483,-0.358871 -2.392473,-0.358871 -2.751344,0.239248 -0.119624,0.35887 -0.239248,5.143817 -0.239248,5.502689 0,0.35887 1.315861,1.196237 1.674731,1.31586 0.358872,0.119624 0.717743,0.119624 0.95699,-0.119623 0.119624,-0.358871 2.27285,-4.784947 2.512098,-5.263443 0.119624,-0.35887 -0.95699,-1.435483 -2.153227,-1.674731 z"
       id="path4"
       style="stroke-width:1.19624" />
    <path
       d="m 54.416956,86.087716 c -1.913979,0.478494 -3.349463,1.31586 -3.947582,3.229839 -0.478494,1.555108 -0.239246,4.665323 1.315861,5.143819 1.076614,0.35887 3.588711,-0.239248 3.947582,-0.95699 0.239248,-0.598119 1.196237,-8.014787 -1.315861,-7.416668 z"
       id="path5"
       style="stroke-width:1.19624" />
    <path
       d="m193.7 176.9s2-9.4.3-13.6c-1.8-4.2-7.6-8.8-7.6-8.8l-6.2 2.2 2.6 4.7-26.7 4.6c-.4.1-.7.5-.6.9l.4 2.5c.1.4.5.7.9.6l15.9-2.7-10.7 24.3c-.4.9 0 1.9.9 2.3s1.9 0 2.3-.9l9.8-22.3 9.9 22.5c.4.9 1.4 1.3 2.3.9s1.3-1.4.9-2.3l-11.1-25.3 8.5-1.4z"
       id="path6" />
    <path
       d="m187.1 311.7c1.9 0 3.9-.1 4.6-.1 2.4 0 2.5-4 .1-4h-25.8l-11.6 21.7h42.3z"
       id="path7" />
    <path
       d="m178.5 294.4c-.2-.3-1.4.4-2.2.3-.4 0-1.4-.3-1.8-.4-.5-.1-1.9-.3-2.3.1-.1.1-1.6 3.1-2.3 4.7-2.5 0-7.3 0-8.1 0-2.4 0-2.5 4-.1 4h20.5z"
       id="path8" />
    <circle
       cx="35"
       cy="315"
       r="2.2"
       id="circle8" />
    <path
       d="m49.4 321.3c-1.9 3.6-6 7-6.1 7.2-.4.4-1 .5-1.5.5-.7 0-1.3-.3-1.8-.8-.8-1-.7-2.4.3-3.2 0 0 3.6-3 5-5.8 1-1.8 3.6-9.9 5.6-16.6-3.7-4.7-9.5-7.8-16-7.8-11.2 0-20.3 9.1-20.3 20.3s9.1 20.3 20.3 20.3 20.3-9.1 20.3-20.3c0-2.4-.4-4.7-1.2-6.9-1.6 5.1-3.6 11.2-4.6 13.1zm-22.2-6.3c0-4.3 3.5-7.8 7.8-7.8s7.8 3.5 7.8 7.8-3.5 7.8-7.8 7.8-7.8-3.5-7.8-7.8z"
       id="path9" />
    <path
       d="m128.8 307.6c-.7-1.8-11.7.7-24.5 5.7s-22.6 10.6-21.8 12.4c.4.9 3.2.7 7.4-.2 4.8 6.8 13.7 9.8 21.8 6.6s12.6-11.4 11.5-19.6c3.8-2.2 5.9-4 5.6-4.9z"
       id="path10" />
    <path
       d="m102.6 309.1c6.1-2.4 12-4.3 16.7-5.5-4.9-6.2-13.4-8.8-21.1-5.8s-12.2 10.7-11.6 18.6c4.3-2.3 9.9-4.9 16-7.3z"
       id="path11" />
    <path
       d="m187 237h-12-12l-3 9.5h15 15z"
       id="path12" />
    <path
       d="m193 251h-18-18l-3 10h21 21z"
       id="path13" />
    <path
       d="m167 223.5v9h4.7v-4.5h6.5v4.5h4.8v-9z"
       id="path14" />
    <path
       d="m31.6 171.6 2.6-11.9c.2-.9 1.4-.9 1.6 0l2.6 11.9 11.8 2.6c.9.2.9 1.4 0 1.6l-11.8 2.6-2.6 11.9c-.2.9-1.4.9-1.6 0l-2.6-11.9-11.8-2.6c-.9-.2-.9-1.4 0-1.6z"
       id="path15" />
    <circle
       cx="43.7"
       cy="165.9"
       r="2.2"
       id="circle15" />
    <circle
       cx="50.4"
       cy="159.9"
       r="2.2"
       id="circle16" />
    <circle
       cx="19.1"
       cy="189.4"
       r="2.2"
       id="circle17" />
    <circle
       cx="25.8"
       cy="183.4"
       r="2.2"
       id="circle18" />
    <circle
       cx="43.7"
       cy="183.4"
       r="2.2"
       id="circle19" />
    <circle
       cx="50.4"
       cy="189.4"
       r="2.2"
       id="circle20" />
    <circle
       cx="25.8"
       cy="165.9"
       r="2.2"
       id="circle21" />
    <circle
       cx="19.1"
       cy="159.9"
       r="2.2"
       id="circle22" />
    <path
       d="m86 172.5 19 23 19-23z"
       id="path22" />
    <path
       d="m98.2 158 6.8 10 6.7-10z"
       id="path23" />
    <path
       d="m124 168-6.8-10-6.7 10z"
       id="path24" />
    <path
       d="m99.5 168-6.8-10-6.7 10z"
       id="path25" />
    <path
       d="m174.9 433.9-20.8 35.3h41.8zm.1 23.9c-2.3 0-4.2-1.9-4.2-4.2s1.9-4.2 4.2-4.2 4.2 1.9 4.2 4.2-1.9 4.2-4.2 4.2z"
       id="path26" />
    <path
       d="m89.2 250.2c-2.4 2.4-4.5 8.4-4.5 8.4s6-2.1 8.4-4.5z"
       id="path27" />
    <path
       d="m96 257c-2.4 2.4-4.5 8.4-4.5 8.4s6-2.1 8.4-4.5z"
       id="path28" />
    <path
       d="m116.1 247.4 6.7-11.1c1.6-2.7 1.4-8.1.3-9.2s-6.5-1.4-9.2.3l-11.1 6.7-12.2-.2-5.7 5.7 12.9 12.9 12.9 12.9 5.7-5.7zm-10.8-10.8 11.1-6.7 3.9 3.9-6.7 11z"
       id="path29" />
    <path
       d="m122.1 378.6c-2.6-4.2-8-8.1-8-8.1s.6-2.2.4-2.9c-.1-.4-1.1-.9-1.1-.9s-1.1-.5-1.4-.3c-.6.3-2 2.1-2 2.1s-6.4-1.9-11.3-1.4-10.8 3-10.8 3-1.6 3.2-1.8 3.6c1.3 1.5 5.6 4.3 6.2 4.7.8-1.1 2.1-2.7 2.5-3 .7-.6 1.3-.6 2-.2.9.6-.1 2.8-1.4 5.1 1.9 1.3 5.8 3.2 7 3.9 1.1-2.2 2.8-4.6 4.3-3.9s.6 3.5-.5 5.8c1.3.6 5.2 2.5 7.3 3.2 1-2.4 2.2-4.6 3.2-4.2.8.3 1.1.8 1.1 1.7 0 .6-.5 2.6-.9 3.8.8.3 5.6 2 7.6 2.1.2-.4 1.8-3.6 1.8-3.6s-1.6-6.3-4.2-10.5z"
       id="path30" />
    <path
       d="m92.4 404.1 7.3-14.8 4 2-7.3 14.8z"
       id="path31" />
    <path
       d="m187.8 376.9-6.1 4.1-6.1-4.1-6.1 4.1v-9.2l-6.1-8.2-6.1 8.2v30.7h13.8v-6.9c0-2.5 2.1-4.6 4.6-4.6s4.6 2.1 4.6 4.6v6.9h13.8v-21.5z"
       id="path32" />
    <path
       d="m58.3 396.8c-1.4-1.9-3.8-4.9-8-8.5-4.6-3.8-8.1-5.2-8.1-5.2s2-3.7 2.8-5.1 1.9-3.9 1.4-4.5c-.5-.5-3.1.7-4.5 1.4-1.4.8-5.1 2.8-5.1 2.8s-1.4-3.5-5.2-8.1c-3.5-4.3-6.5-6.7-8.5-8-1-.7-1.6 1-2.1 3.9-1 5.7-1.5 12.7 4.6 23 0 0-6.5 4.6-8.2 5.6-1 .6-.8 1.4-.4 1.9.4.4 3 3.2 3.4 3.5.3.4 3.1 3 3.5 3.4s1.2.6 1.9-.4c1.1-1.6 5.6-8.2 5.6-8.2 10.2 6.1 17.3 5.6 23 4.6 2.9-.4 4.6-1 3.9-2.1z"
       id="path33" />
    <path
       d="m108.3 449.9c-9-3.6-17.1-1.7-26 2.5 3.6 9.2 8.1 16.1 17.2 19.7 9 3.6 17.1 1.7 26-2.5-3.6-9.1-8.2-16.1-17.2-19.7zm2.1 13.7c-1.4 3.6-5.5 5.4-9.2 3.9-3.6-1.4-5.4-5.5-3.9-9.2 1.4-3.6 5.5-5.4 9.2-3.9 3.6 1.5 5.4 5.6 3.9 9.2z"
       id="path34" />
    <path
       d="m126 453.3c.2.5.2.9-.2 1.2-.6.4-.5.3-1 .5-.4.2-.7.1-1.1-.5-4.3-6.2-7.5-9.2-13.9-11.7-6.5-2.5-11.6-2.2-17.2-1.4-3.2.5-3.4-.4-2.6-1.3s2.7-1.1 2.5-2.1-2.9.6-3.9-.1c-1.2-.8 1.5-2.7 5.6-3.6 9.6-1.9 24 1.8 31.8 19z"
       id="path35" />
    <path
       d="m155.8 113.6h38.5c-6.9-3.3-11.8-8.5-11.8-9.4h7.3c-5.6-3.1-10.3-8.1-10.3-9h7.2c-7.6-4.2-11.1-12-11.5-12.3-.5.3-4 8.1-11.5 12.3h7.2c0 1-4.7 5.9-10.3 9h7.3c-.3 1-5.2 6.1-12.1 9.4z"
       id="path36" />
    <path
       d="m172.3 118.1h5.4v6.5h-5.4z"
       id="path37" />
    <path
       d="m119.7 112c-3.6 3.1-7.8 5.1-11.6 5.9v-20h10.7c1 0 1.8-.8 1.8-1.8s-.8-1.8-1.8-1.8h-10.3c1.7-1.1 2.8-3 2.8-5.2 0-3.5-2.8-6.2-6.2-6.2-3.5 0-6.2 2.8-6.2 6.2 0 2.2 1.1 4.1 2.8 5.2h-10.5c-1 0-1.8.8-1.8 1.8s.8 1.8 1.8 1.8h10.7v19.9c-3.8-.8-8-2.8-11.6-5.9l-5.3 1.5c5.3 7.1 14.6 11.7 20 12 5.4-.3 14.7-4.9 20-12zm-14.7-25.6c1.5 0 2.8 1.2 2.8 2.7s-1.2 2.8-2.7 2.8-2.8-1.2-2.8-2.7c-.1-1.5 1.2-2.8 2.7-2.8z"
       id="path38" />
    <path
       d="m47.2 29.2h-2.8v-5.4c0-4.3-4.1-9-9.5-9.1-5.4 0-9.5 4.8-9.5 9.1v5.4h-2.6c-1.3 0-2.3 1-2.3 2.3v17.3c0 1.3 1 2.3 2.3 2.3h24.4c1.3 0 2.3-1 2.3-2.3v-17.2c0-1.3-1-2.4-2.3-2.4zm-18.3-5.3c0-2.3 2.3-5.6 6-5.6s6 3.3 6 5.6v5.4h-12z"
       id="path41" />
    <path
       d="m57 518.4s-5.1.9-10.1 4.4c0 .7.1 1.4.1 2.2 0 8.6-3.5 15-6.1 18.6 3.7-.5 8.5-2.1 12.3-7.1 5.6-7.5 3.8-18.1 3.8-18.1z"
       id="path42" />
    <path
       d="m25.5 513c-2.9-2.8-5.4-3.9-5.4-3.9s-1 2.5-1.3 6.3c1.5.6 3.3 1.4 5.1 2.5.4-1.8 1-3.4 1.6-4.9z"
       id="path43" />
    <path
       d="m35 506.5s-7.4 6.8-7.4 18.5 7.4 18.5 7.4 18.5 7.4-6.8 7.4-18.5-7.4-18.5-7.4-18.5z"
       id="path44" />
    <path
       d="m51.2 515.4c-.3-3.9-1.3-6.3-1.3-6.3s-2.4 1.1-5.4 3.9c.6 1.5 1.2 3.1 1.6 4.9 1.8-1.1 3.5-1.9 5.1-2.5z"
       id="path45" />
    <path
       d="m13 518.4s5.1.9 10.1 4.4c0 .7-.1 1.4-.1 2.2 0 8.6 3.5 15 6.1 18.6-3.7-.5-8.5-2.1-12.3-7.1-5.6-7.5-3.8-18.1-3.8-18.1z"
       id="path46" />
    <path
       d="m86 514.5 1 4v25.5h11.3v-18.8c0-3.7 3-6.7 6.7-6.7s6.7 3 6.7 6.7v18.8h11.3v-25.5l1-4z"
       id="path47" />
    <path
       d="m121 506h-9.8l-6.2-4-6.2 4h-9.8l-1 4h34z"
       id="path48" />
    <path
       d="m194 513.8c-2.7-2-6.3-2.6-9.8-2.8.3-1.4.8-3.5 1.3-4.7.9-2.4-.6-1.9-1.5-.8-.6.7-2.2 3-2.9 4.3-.6 1.1-1.9.7-1.7-.4.3-2.1 1-4.4 2.1-7 .7-1.7-.7-1.5-1.4-.8-1.7 1.8-4.1 6.1-4.7 7.3-.6 1.3-2.1.7-1.9-.4.4-2.5 2.6-7.8 2.9-8.4.4-.9-.5-1.6-1.8-.4-.7.6-3.6 4.1-5.9 9.1-3.7-.7-7.5-.7-11 1.5-6.3 4.1-6.3 13.3-2 18 3.1 3.5 4.9 5 6.2 9.8 1.6 5.8 5.3 9.9 11.1 10.6 5.3.6 9.2-3.3 11.6-7.6 2.1-3.7 4.6-6 9.9-9.8 5.9-4.2 4.9-13.5-.5-17.5zm-30.4 12.8c-3.4-.4-5.9-3.5-5.4-6.9.4-3.4 3.5-5.9 6.9-5.4 3.4.4 5.9 3.5 5.4 6.9-.3 3.4-3.4 5.8-6.9 5.4zm12.2 7c-.2.8-1.2 1.5-3.8 1-2.5-.5-2.7-1.5-2.4-2.5.3-1.1 3.1-5.2 4.1-5s2.4 5.1 2.1 6.5zm15.8-9.9c-.4 3.5-3.6 6.1-7.2 5.6-3.5-.4-6.1-3.6-5.6-7.2.4-3.5 3.6-6.1 7.2-5.6 3.5.4 6.1 3.6 5.6 7.2z"
       id="path49" />
    <path
       d="m25 582.8-.2-9c0-.7-.6-1.2-1.3-1.3-.7 0-1.3.6-1.3 1.3l-.2 9-5.2 5.2v24.5h13.5v-24.5z"
       id="path50" />
    <path
       d="m48.4 572.5h-13.7v40h19.5v-21.5l-5.9-5.9zm-3.4 10.1h-6.8v-6.8h6.8z"
       id="path51" />
    <path
       d="m130.9 591s-8.4-2.1-17.4-.6c-7.5 1.2-15.2 2.5-17.8 2.9-3.7-3.9-10.6-11.1-11.2-11.7-.9-1-2.1-.7-1.8.6l4.1 16.5c-1.2.3-4.1 1.1-5.4 3.5 2.3 1.5 5.3 1 6.5.7l.9 3.6 8.1-1-1.7 6.9c.1.4.4.7.6.7l10.9-2.4c.5-.1.8-.5.9-.9l2.9-6.3s4.9-1.1 10.4-3.1c8.2-2.9 10.8-6.4 10.8-6.4z"
       id="path52" />
    <path
       d="m104.9 581.6c-4.1 0-7.2 3.1-7.9 7l15.4-2.5c-1.4-2.6-4.4-4.5-7.5-4.5z"
       id="path53" />
    <path
       d="m174.4 573.7-22.4 33.6h34.7z"
       id="path54" />
    <path
       d="m181.3 579.4 10.2 27.9h7.5z"
       id="path55" />
  </g>
</svg>
